<svg xmlns="http://www.w3.org/2000/svg" width="600" height="600" xmlns:v="https://vecta.io/nano"><rect width="600" height="600" ry="100" fill="#007a8c"/><path d="M287.594 302.411v-64.6l-23.8-6.1c-15.1-4-29.9-8.8-44-15.5-7.6-3.6-15-7.7-21.2-13.6-3.4-3.2-6.7-6.9-9-10.9-5.2-9-4.8-18.3 1.2-26.8 2.7-3.8 6.1-7.3 9.7-10.3 8.4-7 18.3-11.5 28.4-15.6 16.3-6.8 33.1-11.5 49.8-16.5 3-.9 5.9-1.9 9-2.9v-5.1l.1-57a48.98 48.98 0 0 1 .6-7.7c.6-4.4 2.9-6.6 7.1-7.1s8.3 1.4 9.6 5.3c.9 2.5 1.3 5.3 1.3 7.9l.9 54.6c0 1.1.1 2.2.2 3.2.4.1.6.3.8.3l23.1-7.9c7.2-2.6 12.3-7.4 14.5-14.8 4.9-16.4 17.3-23.9 32.9-27.3 7.7-1.7 15.5-2.7 23.4-1 8.9 1.8 13.1 7.7 11.5 16.5-2 11.2-6.8 21.2-13.9 29.9-6.4 7.9-15.2 11.7-25.1 12.8-9.8 1.1-19 4.1-28.2 7.5-11.1 4-22.3 7.6-33.5 11.4-1.8.6-3.5 1.3-5.5 2l-.9 70.7 11.6 3.1c10.7 2.9 21.4 6.1 31.6 10.6 6.7 3 13 6.6 18.3 11.9 10.2 10.2 12.5 22.8 6.3 35.8-4.2 8.8-10.4 16-18.2 21.6-6.6 4.7-13.6 8.8-20.7 12.9-8.1 4.7-16.4 9-24.7 13.3-2.2 1.2-3 2.6-3 5.1l.2 67.2c0 2.3.8 3.7 2.7 4.9 6.1 3.8 11.9 8 18.1 11.7 8.9 5.4 12.9 13.6 14.4 23.4 1.9 12.3-1.3 23.7-7.1 34.4-4.6 8.6-10.6 16.1-17.8 22.6-6.4 5.8-13.2 11.3-19.8 17-4.4 3.8-8.8 7.7-13 11.7-5.9 5.8-8.9 12.8-8.4 21.2.3 4.2.2 8.4-1.6 12.4-1.3 3-2.3 3.3-5.4 2.1-3.2-1.2-5-3.8-5.8-6.9-1-3.9-1.8-7.9-2.3-12-1.9-15.9 2.4-29.5 14.6-40.3l8.9-7.8c1.8-1.5 2.5-3.3 2.5-5.7l-.2-60.3c0-3.2-1-5.1-4-6.6a449.82 449.82 0 0 1-23.8-12.5c-8.2-4.6-15.7-10.2-22.3-17-5.9-6.1-10.8-13-12.6-21.5-2.7-12.5 0-23.7 8.7-33.2 6.3-6.9 14.1-11.9 22.4-16 8.6-4.3 17.4-8.2 26.1-12.3 1.9-.4 3.6-1.4 5.3-2.2zm-.1-93.5v-59.9c-.9.1-1.7.1-2.4.4-14.2 4.4-28.4 9.1-41.6 16.1-3.4 1.8-6.7 4.2-9.5 6.8-5.9 5.6-5.7 11.6.5 16.7 3.3 2.7 7.1 4.9 11 6.9 8.1 4.1 16.8 6.7 25.6 9zm.2 123.7c-1.2.3-1.7.4-2.1.6-8.7 3.6-16.9 8.1-24.2 13.9-1.8 1.4-3.4 3.2-4.7 5-4.9 6.9-4.6 13.2 1.2 19.5 8.1 8.9 19.1 13.5 29.9 18.8zm19-89.3l.7 50.8c9-2.6 23.6-11.3 29.2-17.3 1.3-1.4 2.4-3 3.3-4.6 2.6-4.6 2.3-9.3-1.2-13.2-2.2-2.5-4.9-4.8-7.8-6.3-5.8-2.9-11.9-5.3-17.9-7.8-1.8-.7-3.8-1-6.3-1.6zm.4 229.7c5.3-4.9 10.1-9.3 12.8-15.3 1.7-3.8 2-7.9 1.3-12-1.4-7.9-6.8-12.4-14.1-16.4z" fill="#fff"/></svg>