<?xml version="1.0" encoding="UTF-8" standalone="no"?>
<svg
   fill="none"
   version="1.1"
   id="svg6"
   width="32"
   height="32"
   viewBox="-1 -2 32 32"
   xmlns="http://www.w3.org/2000/svg"
   xmlns:svg="http://www.w3.org/2000/svg">
  <defs
     id="defs6" />
  <path
     d="M 25.3352,3.89334 26.8426,5.35466 24.1093,8.08799 22.6018,6.62667 Z"
     fill="currentColor"
     id="path1"
     style="fill:#295dae;fill-opacity:1" />
  <path
     d="M 16,0 V 4 H 14 V 0 Z"
     fill="currentColor"
     id="path2"
     style="fill:#295dae;fill-opacity:1" />
  <path
     d="M 4.62931,3.90402 7.38043,6.65514 5.91912,8.11642 3.12177,5.41156 Z"
     fill="currentColor"
     id="path3"
     style="fill:#295dae;fill-opacity:1" />
  <path
     d="m 4,13 v 1.9822 H 0 V 13 Z"
     fill="currentColor"
     id="path4"
     style="fill:#295dae;fill-opacity:1" />
  <path
     d="M 30,14.9822 V 13 h -4 v 1.9822 z"
     fill="currentColor"
     id="path5"
     style="fill:#295dae;fill-opacity:1" />
  <path
     fill-rule="evenodd"
     clip-rule="evenodd"
     d="m 10,24.0743 c 0,0.544 0.2216,1.0645 0.6138,1.4416 l 2.0028,1.9258 C 12.9891,27.7999 13.4859,28 14.0028,28 h 1.9944 c 0.5169,0 1.0137,-0.2001 1.3862,-0.5583 l 2.0028,-1.9258 C 19.7784,25.1388 20,24.6183 20,24.0743 v -3.1352 c 0,0 0.0014,-0.0051 0.0043,-0.011 0.0062,-0.0125 0.0193,-0.0316 0.0424,-0.0512 C 21.732,19.4467 23,17.1691 23,14.7857 23,10.4567 19.3887,7 15,7 c -4.3887,0 -8,3.4567 -8,7.7857 0,2.3834 1.26799,4.661 2.9533,6.0912 0.0231,0.0196 0.0362,0.0387 0.0424,0.0512 C 9.9986,20.934 10,20.9391 10,20.9391 Z M 15,9 c -3.3432,0 -6,2.6194 -6,5.7857 0,1.7017 0.9325,3.4505 2.2474,4.5663 C 11.6843,19.7227 12,20.2864 12,20.9379 V 22 h 2 v -6 h -1 c -0.5523,0 -1,-0.4477 -1,-1 0,-0.5523 0.4477,-1 1,-1 h 4 c 0.5523,0 1,0.4477 1,1 0,0.5523 -0.4477,1 -1,1 h -1 v 6 h 2 V 20.9379 C 18,20.2864 18.3158,19.7227 18.7526,19.352 20.0675,18.2362 21,16.4874 21,14.7857 21,11.6194 18.3432,9 15,9 Z m -3,15 v 0.0743 L 14.0028,26 h 1.9944 L 18,24.0743 V 24 Z"
     fill="currentColor"
     id="path6"
     style="fill:#295dae;fill-opacity:1" />
</svg>
