<?xml version="1.0" encoding="UTF-8" standalone="no"?>
<svg fill="none" version="1.1" id="svg3" sodipodi:docname="__thieme-heart.svg" width="166.00005" height="146.47131" inkscape:version="1.3 (0e150ed, 2023-07-21)" xmlns:inkscape="http://www.inkscape.org/namespaces/inkscape" xmlns:sodipodi="http://sodipodi.sourceforge.net/DTD/sodipodi-0.dtd" xmlns="http://www.w3.org/2000/svg" xmlns:svg="http://www.w3.org/2000/svg">
  <defs id="defs3" />
  <mask id="mask0_1_68" maskUnits="userSpaceOnUse" x="4" y="4" width="155" height="138">
    <path d="M 40.4274,4.93727 C 63.1464,3.77222 77.0496,21.7404 81.1426,30.7882 86.9591,18.509 101.135,4.93727 121.858,4.93727 c 12.279,0 34.252,10.34033 36.191,38.77643 2.099,30.7855 -48.039,77.3373 -74.9676,96.9413 -2.5856,1.882 -4.5613,0.406 -5.1701,0 C 21.6848,103.171 4.88234,63.7482 4.88234,40.4823 4.88234,29.4957 15.2221,6.22981 40.4274,4.93727 Z" fill="#ffffff" id="path1" />
  </mask>
  <g mask="url(#mask0_1_68)" id="g3">
    <ellipse cx="79.203903" cy="52.061199" rx="193.23599" ry="92.417198" fill="#ffffff" id="ellipse1" />
    <ellipse cx="80.496597" cy="32.026699" rx="109.22" ry="54.286999" fill="#a3d9f6" id="ellipse2" />
    <ellipse cx="79.203903" cy="22.3326" rx="79.491699" ry="23.9121" fill="#023475" id="ellipse3" />
  </g>
  <path fill-rule="evenodd" clip-rule="evenodd" d="M 82.6542,21.3293 C 75.382,11.2481 61.3608,-0.96910894 40.8791,0.06101356 26.4297,0.78774106 16.1337,7.7528601 9.54521,16.0349 3.0948,24.1435 0,33.7557 0,40.4822 0,65.9738 18.5291,106.725 76.6713,144.741 c 0.013,0.009 0.0315,0.021 0.0554,0.037 0.3298,0.225 1.6869,1.147 3.5268,1.52 2.2205,0.45 4.7647,0.068 7.1983,-1.67 13.9732,-9.977 33.9032,-26.753 50.1292,-45.0068 8.114,-9.1269 15.416,-18.7508 20.576,-28.1874 5.116,-9.3574 8.395,-19.0175 7.766,-28.0588 C 163.733,11.8731 138.695,0.05485026 124.152,0.05485026 104.943,0.05485026 90.7497,10.1857 82.6542,21.3293 Z M 78.2045,32.8331 C 74.4277,24.645 61.6708,8.7923501 41.3696,9.8133901 30.1195,10.3792 22.2946,15.6933 17.1869,22.1139 11.9412,28.7081 9.7647,36.2221 9.7647,40.4822 c 0,21.0351 15.7271,59.1154 72.2089,96.0588 13.4741,-9.644 32.7224,-25.873 48.3094,-43.4074 7.832,-8.8098 14.624,-17.8214 19.306,-26.3843 4.725,-8.6421 7.034,-16.3456 6.593,-22.6971 C 154.418,18.6821 134.648,9.8195501 124.152,9.8195501 105.287,9.8195501 92.3355,21.9355 87.0344,32.9115 l -4.498,9.3132 z" fill="#ffffff" id="path3" />
</svg>