<?xml version="1.0" encoding="UTF-8" standalone="no"?>
<!-- Generator: Adobe Illustrator 14.0.0, SVG Export Plug-In . SVG Version: 6.00 Build 43363)  -->

<svg
   version="1.1"
   x="0px"
   y="0px"
   width="93.142525"
   height="127.64087"
   viewBox="0 0 24.823 34.01655"
   enable-background="new 0 0 239.855 59.35"
   xml:space="preserve"
   id="svg84"
   sodipodi:docname="_thieme.svg"
   inkscape:version="1.2.2 (b0a84865, 2022-12-01)"
   xmlns:inkscape="http://www.inkscape.org/namespaces/inkscape"
   xmlns:sodipodi="http://sodipodi.sourceforge.net/DTD/sodipodi-0.dtd"
   xmlns="http://www.w3.org/2000/svg"
   xmlns:svg="http://www.w3.org/2000/svg"><defs
   id="defs88">
	
	
	
	
	
	
	
	
</defs><sodipodi:namedview
   id="namedview86"
   pagecolor="#ffffff"
   bordercolor="#000000"
   borderopacity="0.25"
   inkscape:showpageshadow="2"
   inkscape:pageopacity="0.0"
   inkscape:pagecheckerboard="0"
   inkscape:deskcolor="#d1d1d1"
   showgrid="false"
   inkscape:zoom="1.0597216"
   inkscape:cx="393.02775"
   inkscape:cy="67.942372"
   inkscape:window-width="1309"
   inkscape:window-height="456"
   inkscape:window-x="0"
   inkscape:window-y="0"
   inkscape:window-maximized="0"
   inkscape:current-layer="svg84" />
<g
   id="g66"
   transform="translate(-15.372,-11.588393)">
		<path
   fill="#013476"
   d="m 37.146,29.273 c -0.46,-0.346 -1.036,-0.627 -1.612,-0.653 -1.436,-0.066 -1.737,1.3 -2.868,0.889 -0.621,-0.226 -1.597,-0.789 -1.496,-1.561 0.705,-0.974 2.081,-1.007 3.122,-1.175 0.973,-0.227 1.225,-1.299 1.786,-1.856 0.026,-0.033 0.034,-0.064 -0.023,-0.077 -0.313,-0.07 -1.432,-0.281 -2.179,0.092 -0.494,0.247 -1.07,0.864 -1.35,1.317 -0.127,0.206 -0.354,0.296 -0.65,0.222 0.585,-0.89 0.67,-2.105 1.441,-2.963 0.333,-0.372 0.839,-0.65 1.539,-0.815 1.093,-0.257 0.89,-1.568 1.541,-2.253 0.028,-0.029 0.027,-0.066 -0.017,-0.083 -0.352,-0.176 -1.592,-0.228 -2.314,0.864 -0.446,0.673 -0.545,1.391 -1.284,1.693 0,0 -0.264,-0.829 -0.236,-1.343 0.038,-0.696 1.138,-1.217 1.646,-1.846 0.591,-0.732 0.222,-1.759 0.265,-2.588 10e-4,-0.045 -0.011,-0.063 -0.069,-0.048 -0.647,0.161 -1.292,0.738 -1.705,1.326 -0.518,0.738 0.268,1.612 -0.404,2.115 -0.269,-0.503 -0.491,-1.145 -0.739,-1.678 -0.209,-0.45 0.031,-1.172 -0.199,-1.788 -0.317,-0.848 -1.237,-1.192 -1.805,-1.525 -0.041,-0.026 -0.068,-0.027 -0.084,0.023 -0.233,0.738 -0.331,1.773 0.062,2.35 0.36,0.529 1.235,1.035 1.354,1.309 0.192,0.441 0.481,1.127 0.403,1.846 -0.202,0 -0.375,-0.068 -0.369,-0.235 0.051,-1.577 -1.604,-1.514 -2.619,-1.982 -0.048,-0.018 -0.07,-0.011 -0.072,0.039 -0.045,0.716 0.206,1.449 0.702,2.052 0.799,0.971 2.272,0.296 2.459,1.133 0.341,1.524 -0.638,3.357 -1.477,4.666 -0.47,-0.806 0.236,-1.494 0.269,-2.451 0.017,-0.481 -0.363,-1.335 -0.787,-1.792 -0.032,-0.036 -0.061,-0.038 -0.089,0.01 -0.408,0.703 -0.948,1.221 -1.104,1.883 -0.134,0.567 0.157,1.017 0.503,1.376 0.564,0.585 0.665,1.307 0.549,2.006 -0.209,1.275 -1.131,2.479 -1.254,2.66 -0.102,0.15 -0.336,0.287 -0.501,-10e-4 -0.439,-0.769 -0.947,-1.763 -1.292,-2.379 -0.975,-1.737 1.408,-2.7 0.786,-4.367 -0.163,-0.438 -0.454,-0.785 -0.836,-1.087 -0.042,-0.034 -0.076,-0.041 -0.105,0.021 -0.207,0.425 -0.613,0.944 -0.775,1.458 -0.242,0.765 0.354,1.177 0.306,1.623 -0.032,0.294 -0.101,0.534 -0.269,0.705 -0.671,-1.142 -1.642,-2.346 -1.758,-3.423 -0.176,-1.627 2.058,-1.547 2.799,-2.586 0.36,-0.505 0.46,-1.235 0.353,-1.797 -0.012,-0.056 -0.016,-0.082 -0.109,-0.062 -0.186,0.043 -0.625,0.15 -1.016,0.281 -1.368,0.46 -1.041,1.914 -2.048,2.585 -0.067,-0.873 0.404,-2.39 0.63,-2.685 0.348,-0.454 0.75,-0.413 1.169,-1.021 0.383,-0.558 0.569,-1.434 0.524,-2.12 -0.001,-0.056 -0.02,-0.08 -0.085,-0.055 -0.899,0.321 -1.599,0.435 -2.135,1.17 -0.345,0.475 -0.35,1.175 -0.28,1.482 0.089,0.395 -0.642,2.239 -0.774,2.881 -0.502,-0.461 -0.052,-0.967 -0.124,-1.466 -0.104,-0.711 -0.814,-1.478 -1.209,-2.219 -0.02,-0.036 -0.045,-0.052 -0.085,-0.004 -0.535,0.647 -0.564,1.744 -0.519,2.189 0.065,0.638 0.447,1.162 0.974,1.51 0.747,0.495 0.839,1.376 0.705,2.283 0,0 -0.507,-0.146 -0.537,-0.57 -0.105,-1.485 -1.721,-1.307 -2.612,-1.957 -0.04,-0.03 -0.077,-0.038 -0.085,0.028 -0.191,1.62 1.09,2.737 2.092,3.003 1.181,0.313 1.847,1.578 2.35,2.686 -1.23,0.122 -1.337,-1.005 -2.182,-1.41 -0.786,-0.376 -2.379,0.034 -2.767,0.143 -0.056,0.016 -0.057,0.048 -0.01,0.079 1.168,0.828 1.916,2.009 3.482,1.591 0.403,-0.107 1.424,0.354 2.014,0.772 -0.228,0.783 -1.133,1.762 -1.41,1.88 -0.788,0.334 -1.229,-0.472 -1.88,-0.839 -0.807,-0.457 -1.854,-0.192 -2.561,0.125 -0.062,0.035 -0.065,0.062 -0.012,0.116 0.205,0.189 0.75,0.688 0.961,0.833 0.912,0.627 1.847,-0.067 2.719,0.436 -0.424,0.545 -1.272,0.496 -1.779,1.175 -0.404,0.542 -0.494,1.263 -0.474,1.879 -0.001,0.073 0.033,0.076 0.082,0.057 0.753,-0.406 1.935,-0.274 2.272,-1.197 0.257,-0.701 0.084,-1.27 1.343,-2.215 0,0.705 -0.098,1.209 -0.47,2.047 -0.471,1.063 0.092,1.979 0.556,2.771 0.036,0.057 0.081,0.054 0.118,0.02 0.535,-0.494 0.889,-0.993 1.005,-1.347 0.26,-0.787 -0.188,-1.663 -0.47,-2.215 -0.261,-0.51 0.11,-1.762 0.604,-2.349 1.041,2.114 1.86,3.608 1.712,6.377 -0.067,1.251 -0.116,2.532 -0.739,3.726 -0.493,0.946 -2.439,1.423 -1.51,2.753 0.267,0.382 0.585,0.81 1.041,0.671 0.374,-0.114 0.335,-0.536 0.403,-0.906 0.706,0.008 1.18,0.575 1.846,0.47 0.736,-0.116 0.188,-0.759 0.235,-0.974 0.057,-0.262 0.718,-0.826 1.276,-0.772 0.674,0.065 0.427,-0.542 0.906,-0.537 1.036,0.01 2.451,0.806 3.692,1.309 0,0 0.189,-0.104 0.269,-0.167 -0.016,-0.458 -0.671,-0.705 -0.906,-1.142 0.134,-0.201 0.335,-0.235 0.335,-0.504 -0.537,-0.369 -1.315,-0.455 -1.947,-0.705 -0.54,-0.214 -1.379,-0.428 -1.611,-1.141 -0.861,-2.646 -0.154,-6.003 0.94,-8.257 1.424,0.987 0.195,2.474 -0.034,3.524 -0.165,0.758 0.423,1.425 0.796,2.012 0.033,0.049 0.062,0.051 0.106,0.011 0.162,-0.155 0.604,-0.617 0.944,-1.318 0.591,-1.217 -0.873,-1.981 -0.369,-3.055 1.101,0.595 1.096,1.355 1.343,2.148 0.284,0.914 1.443,0.939 2.186,1.464 0.05,0.031 0.071,0.016 0.08,-0.035 0.169,-0.902 -0.076,-1.739 -0.401,-2.226 -0.543,-0.815 -1.663,-0.345 -2.066,-1.285 0.436,-0.503 1.211,-0.086 1.746,-0.034 0.833,0.082 1.714,-0.135 2.241,-0.91 0.028,-0.037 0.031,-0.074 -0.025,-0.114 z"
   id="path62" />
		<path
   fill="#013476"
   d="m 36.608,16.626 c -1.135,-1.572 -2.461,-2.808 -3.939,-3.674 -1.545,-0.905 -3.188,-1.364 -4.885,-1.364 -1.697,0 -3.34,0.459 -4.885,1.364 -1.479,0.866 -2.804,2.102 -3.939,3.674 -2.313,3.204 -3.588,7.455 -3.588,11.97 0,4.516 1.274,8.768 3.588,11.971 1.135,1.572 2.46,2.808 3.939,3.674 1.545,0.905 3.188,1.364 4.885,1.364 1.697,0 3.34,-0.459 4.885,-1.364 1.479,-0.866 2.804,-2.102 3.939,-3.674 2.313,-3.203 3.587,-7.455 3.587,-11.971 10e-4,-4.515 -1.274,-8.766 -3.587,-11.97 z m -8.824,28.057 c -6.335,0 -11.49,-7.216 -11.49,-16.086 0,-8.87 5.154,-16.086 11.49,-16.086 3.04,0 5.909,1.653 8.077,4.656 1.068,1.479 1.907,3.203 2.494,5.125 0.609,1.996 0.919,4.118 0.919,6.306 0,8.869 -5.154,16.085 -11.49,16.085 z"
   id="path64" />
	</g>
<g
   id="Ebene_2_Kopie"
   transform="translate(-15.372,-11.588393)">
</g>
</svg>
